<svg version="1.1" id="Layer_1" xmlns="http://www.w3.org/2000/svg" x="0px" y="0px"
         viewBox="0 0 595.28 595.28" enable-background="new 0 0 595.28 595.28">
    <g>
        <ellipse fill="#341212" cx="301.8" cy="306.65" rx="241.27" ry="249.88"/>
        <g>
            <path fill="#D7DDB6" d="M515.8,595.28c-19.57-133.84-107.93-147.82-214-147.82c-106.07,0-194.43,13.98-214,147.82H515.8z"/>
            <path fill="#9A9E78" d="M98.02,551.27c-4.37,13-7.81,27.6-10.21,44.01H515.8c-2.4-16.41-5.84-31.01-10.21-44.01H98.02z"/>
            <polygon fill="#D68139" points="227.72,257.58 223.6,476.41 377.75,476.41 374.15,257.58 		"/>
            <path opacity="0.5" fill="#54381E" d="M374.15,257.58H227.72l-2,124.4c12.82,33.49,41.65,56.99,74.96,56.99h0
                c33.54,0,62.52-23.8,75.22-57.64L374.15,257.58z"/>
            <path id="hair" fill="#ECC8A9" d="M389.27,330.8H214.34c-15.53,0-28.24-12.71-28.24-28.24V212.6c0-15.53,12.71-28.24,28.24-28.24
                h174.93c15.53,0,28.24,12.71,28.24,28.24v89.96C417.5,318.09,404.8,330.8,389.27,330.8z"/>
            <g>
                <path fill="#D68139" d="M219.7,281.14l1.8-47.1c0.06-1.68-0.62-3.29-1.86-4.42l-12.6-11.35c-2.71-2.44-7-1.72-8.75,1.49l0,0
                    c-5,9.16-5.77,20.04-2.09,29.8l12.56,33.36c1.42,3.78,6.23,4.89,9.16,2.13l0,0C219.01,284.03,219.65,282.63,219.7,281.14z"/>
                <path fill="#A2694B" d="M216.01,277.83c0,0-0.01,0-0.01,0c-0.44-0.01-0.8-0.37-0.79-0.82l0.16-10.7l-0.16,0.05
                    c-1.18,0.37-2.43,0.25-3.52-0.34c-1.09-0.58-1.88-1.56-2.22-2.74c-0.56-1.92,0.22-4.02,1.91-5.11l3.72-2.4l-0.05-8.66
                    c-0.03-5.1-2.03-9.89-5.64-13.5c-1.28-1.27-3.09-1.81-4.86-1.46c-1.77,0.36-3.22,1.58-3.89,3.25c-0.49,1.23-0.51,2.6-0.06,3.84
                    l2.8,7.6c0.15,0.42-0.06,0.88-0.48,1.04c-0.42,0.15-0.88-0.06-1.04-0.48l-2.8-7.6c-0.59-1.62-0.57-3.4,0.08-5
                    c0.87-2.18,2.77-3.76,5.07-4.23c2.3-0.47,4.66,0.24,6.32,1.89c3.91,3.91,6.08,9.1,6.11,14.63l0.05,9.55l-4.47,2.88
                    c-1.09,0.7-1.6,2.06-1.23,3.3c0.22,0.77,0.73,1.4,1.44,1.77c0.7,0.38,1.51,0.45,2.27,0.22l2.28-0.71l-0.19,12.93
                    C216.81,277.48,216.45,277.83,216.01,277.83z"/>
            </g>
            <g>
                <path fill="#D68139" d="M380.54,281.14l-1.8-47.1c-0.06-1.68,0.62-3.29,1.86-4.42l12.6-11.35c2.71-2.44,7-1.72,8.75,1.49l0,0
                    c5,9.16,5.77,20.04,2.09,29.8l-12.56,33.36c-1.42,3.78-6.23,4.89-9.16,2.13l0,0C381.24,284.03,380.6,282.63,380.54,281.14z"/>
                <path fill="#A2694B" d="M384.24,277.83c-0.44,0-0.8-0.35-0.81-0.79l-0.19-12.93l2.28,0.71c0.76,0.24,1.57,0.16,2.27-0.22
                    c0.7-0.38,1.21-1.01,1.44-1.77c0.36-1.24-0.14-2.6-1.23-3.3l-4.47-2.88l0.05-9.55c0.03-5.53,2.2-10.72,6.11-14.63
                    c1.66-1.66,4.02-2.37,6.32-1.89c2.3,0.47,4.19,2.05,5.07,4.23c0.64,1.6,0.67,3.38,0.07,5l-2.79,7.6
                    c-0.16,0.42-0.61,0.63-1.04,0.48c-0.42-0.15-0.63-0.62-0.48-1.04l2.79-7.6c0.46-1.24,0.44-2.61-0.06-3.84
                    c-0.67-1.67-2.13-2.89-3.9-3.25c-1.77-0.35-3.58,0.18-4.86,1.46c-3.61,3.6-5.61,8.4-5.64,13.5l-0.05,8.66l3.72,2.4
                    c1.68,1.08,2.47,3.19,1.91,5.11c-0.35,1.18-1.14,2.16-2.22,2.74c-1.09,0.59-2.34,0.7-3.52,0.34l-0.16-0.05l0.16,10.7
                    c0.01,0.45-0.35,0.81-0.79,0.82C384.25,277.83,384.24,277.83,384.24,277.83z"/>
            </g>
            <path fill="#D68139" d="M300.68,380.62L300.68,380.62c-45.13,0-82.06-36.93-82.06-82.06l4-98.01c0-45.13,32.93-82.06,78.06-82.06
                h0c45.13,0,78.06,36.93,78.06,82.06l4,98.01C382.74,343.69,345.81,380.62,300.68,380.62z"/>
            <path id="beard" fill="#F1CAA3" d="M365.08,340.08L365.08,340.08c-2.55-9.96-13.98-14.48-22.76-9.13
                c-10.53,6.42-23.53,10.26-37.79,10.26h-5.46c-14.35,0-27.4-3.89-37.97-10.38c-8.88-5.46-20.51-0.35-22.83,9.81l-0.57,2.5
                l-1.63,6.1c-9.08,33.98,21.62,66.28,63,66.28h5.46c41.37,0,72.07-32.3,63-66.28L365.08,340.08z"/>
            <path id="mouth" opacity="0.5" fill="#54381E" d="M275.43,306.65h51.57C327.01,306.65,298.8,332.24,275.43,306.65z"/>
            <path id="mustacheLeft" fill="#ECC8A9" d="M182.46,323.36c0,0,58.18,18.96,85.91-45.56c4.8-11.18,18.67-15.12,28.61-8.1l0,0
                c9.37,6.62,10.85,19.93,3.16,28.44C277.79,322.89,230.65,362.35,182.46,323.36z"/>
            <path id="mustacheRight" fill="#ECC8A9" d="M415.67,323.36c0,0-58.18,18.96-85.91-45.56c-4.81-11.18-18.67-15.12-28.61-8.1l0,0
                c-9.37,6.62-10.85,19.93-3.16,28.44C320.33,322.89,367.47,362.35,415.67,323.36z"/>
            <g>
                <g>
                    <path fill="#A2694B" d="M284.11,240.61c-0.22,0-0.44-0.09-0.6-0.27c-14.99-16.87-40.85-8.54-41.11-8.46
                        c-0.42,0.14-0.88-0.09-1.02-0.51c-0.14-0.42,0.09-0.88,0.51-1.02c0.27-0.09,27.14-8.74,42.82,8.92c0.3,0.33,0.26,0.84-0.07,1.14
                        C284.5,240.54,284.3,240.61,284.11,240.61z"/>
                    <g id="eyeballLeft">
                        <path fill="#EFF1DB" d="M241.11,236.54c0,0,22.86-14.15,43,3.27C284.11,239.8,261.52,255.04,241.11,236.54z"/>
                        <path id="pupilLeft" fill="#24211C" d="M269.14,237.65c0,3.61-2.92,6.53-6.53,6.53s-6.53-2.92-6.53-6.53
                            c0-3.61,2.92-6.53,6.53-6.53S269.14,234.04,269.14,237.65z"/>
                        <path fill="#EFF1DB" d="M257.23,235.19c0.5-0.42,1.25-0.35,1.67,0.15c0.42,0.5,0.35,1.25-0.15,1.67
                            c-0.5,0.42-1.25,0.35-1.67-0.15C256.66,236.36,256.73,235.61,257.23,235.19z"/>
                    </g>
                    <path id="browLeft" fill="#ECC8A9" d="M232.14,229.14l53.04-6.57l-12.47-9.55C272.71,213.02,243.74,217.98,232.14,229.14z"/>
                </g>
                <path fill="#A2694B" d="M261.02,252.43c-11.56,0-19.25-6-19.38-6.1c-0.35-0.28-0.4-0.78-0.13-1.13c0.28-0.35,0.79-0.4,1.13-0.13
                    c0.74,0.59,18.49,14.36,40.98-2.52c0.35-0.27,0.86-0.2,1.13,0.16c0.27,0.36,0.2,0.86-0.16,1.13
                    C275.91,250.37,267.8,252.43,261.02,252.43z"/>
            </g>
            <g>
                <g>
                    <path fill="#A2694B" d="M323.54,240.61c-0.19,0-0.38-0.07-0.54-0.2c-0.33-0.3-0.36-0.81-0.07-1.14
                        c15.68-17.66,42.55-9.01,42.82-8.92c0.42,0.14,0.65,0.6,0.51,1.02c-0.14,0.42-0.6,0.66-1.02,0.51
                        c-0.26-0.08-26.14-8.4-41.11,8.46C323.99,240.52,323.77,240.61,323.54,240.61z"/>
                    <g id="eyeballRight">
                        <path fill="#EFF1DB" d="M366.55,236.54c0,0-22.86-14.15-43,3.27C323.54,239.8,346.13,255.04,366.55,236.54z"/>
                        <path id="pupilRight" fill="#24211C" d="M338.51,237.65c0,3.61,2.92,6.53,6.53,6.53c3.61,0,6.53-2.92,6.53-6.53
                            c0-3.61-2.92-6.53-6.53-6.53C341.44,231.11,338.51,234.04,338.51,237.65z"/>
                        <path fill="#EFF1DB" d="M350.43,235.19c-0.5-0.42-1.25-0.35-1.67,0.15c-0.42,0.5-0.35,1.25,0.15,1.67
                            c0.5,0.42,1.25,0.35,1.67-0.15C351,236.36,350.93,235.61,350.43,235.19z"/>
                    </g>
                    <path id="browRight" fill="#ECC8A9" d="M375.52,229.14l-53.04-6.57l12.47-9.55C334.94,213.02,363.92,217.98,375.52,229.14z"/>
                </g>
                <path fill="#A2694B" d="M346.63,252.43c-6.78,0-14.88-2.06-23.57-8.59c-0.36-0.27-0.43-0.77-0.16-1.13
                    c0.27-0.35,0.77-0.43,1.13-0.16c22.49,16.87,40.23,3.11,40.97,2.52c0.35-0.27,0.85-0.22,1.13,0.13c0.28,0.35,0.22,0.85-0.13,1.13
                    C365.89,246.43,358.19,252.43,346.63,252.43z"/>
            </g>
            <path fill="#A2694B" d="M250.45,299.44c-0.34,0-0.66-0.22-0.77-0.57l-2.93-9.47c-1.48-4.8-4.99-8.67-9.62-10.62
                c-4.56-1.92-8.23-5.66-10.06-10.26l-4.22-10.64c-0.16-0.41,0.04-0.88,0.45-1.05c0.41-0.16,0.88,0.04,1.05,0.45l4.22,10.64
                c1.67,4.2,5.02,7.62,9.18,9.37c5.07,2.13,8.91,6.37,10.54,11.63l2.93,9.47c0.13,0.42-0.11,0.88-0.53,1.01
                C250.61,299.43,250.53,299.44,250.45,299.44z"/>
            <path fill="#A2694B" d="M348.99,299.44c-0.08,0-0.16-0.01-0.24-0.04c-0.42-0.13-0.66-0.58-0.53-1.01l2.93-9.47
                c1.62-5.26,5.46-9.5,10.54-11.63c4.17-1.75,7.51-5.17,9.18-9.37l4.22-10.64c0.17-0.41,0.63-0.61,1.05-0.45
                c0.41,0.16,0.62,0.63,0.45,1.05l-4.22,10.64c-1.83,4.6-5.49,8.34-10.06,10.26c-4.63,1.95-8.14,5.82-9.62,10.62l-2.93,9.47
                C349.66,299.22,349.34,299.44,348.99,299.44z"/>
            <g>
                <path fill="#D68139" d="M300.68,227.07l-6.92,9.74c-0.38,0.54-0.56,1.2-0.51,1.85l1.82,22.06c0.07,0.88-0.27,1.74-0.93,2.32
                    l-9.08,8.11c-0.6,0.53-0.94,1.29-0.94,2.09v0.16c0,1.55,1.26,2.8,2.8,2.8h1.83c1.2,0,2.26,0.76,2.65,1.89l2.73,7.9
                    c0.39,1.13,1.45,1.89,2.65,1.89h6.21c1.13,0,2.15-0.68,2.59-1.72l3.62-8.64c0.44-1.04,1.46-1.72,2.59-1.72h3.16
                    c1.55,0,2.8-1.26,2.8-2.8l0,0c0-0.66-0.23-1.29-0.65-1.8l-4.18-5.02"/>
                <path fill="#A2694B" d="M302.98,288.71h-6.21c-1.54,0-2.91-0.98-3.41-2.43l-2.72-7.9c-0.28-0.81-1.04-1.35-1.89-1.35h-1.83
                    c-1.99,0-3.61-1.62-3.61-3.61v-0.16c0-1.03,0.44-2.01,1.2-2.69l9.09-8.11c0.46-0.42,0.71-1.03,0.66-1.65l-1.82-22.07
                    c-0.07-0.85,0.16-1.69,0.65-2.39l6.92-9.74c0.26-0.36,0.76-0.44,1.12-0.19c0.36,0.26,0.45,0.76,0.19,1.12l-6.92,9.74
                    c-0.27,0.38-0.4,0.85-0.36,1.32l1.82,22.07c0.09,1.12-0.35,2.24-1.19,2.99l-9.09,8.11c-0.42,0.38-0.67,0.92-0.67,1.49v0.16
                    c0,1.1,0.9,2,2,2h1.83c1.54,0,2.91,0.98,3.41,2.43l2.72,7.9c0.28,0.81,1.04,1.35,1.89,1.35h6.21c0.81,0,1.53-0.48,1.84-1.23
                    l3.62-8.65c0.56-1.35,1.87-2.22,3.33-2.22h3.16c1.1,0,2-0.9,2-2c0-0.47-0.16-0.92-0.46-1.28l-4.18-5.02
                    c-0.29-0.34-0.24-0.85,0.1-1.13c0.34-0.29,0.85-0.24,1.13,0.1l4.18,5.02c0.54,0.65,0.84,1.47,0.84,2.31
                    c0,1.99-1.62,3.61-3.61,3.61h-3.16c-0.81,0-1.53,0.48-1.84,1.23l-3.62,8.65C305.75,287.84,304.44,288.71,302.98,288.71z"/>
            </g>
            <path fill="#A2694B" d="M354.36,198.52c-0.06,0-0.13-0.01-0.19-0.02l-23.03-5.56c-4.73-1.14-9.78-0.26-13.85,2.41
                c-3.15,2.07-6.81,3.17-10.59,3.17h-13.61c-3.44,0-6.82-0.92-9.78-2.67l-1.9-1.12c-3.93-2.32-8.55-3.03-13.01-1.98l-24.46,5.75
                c-0.44,0.12-0.87-0.17-0.97-0.6c-0.1-0.43,0.17-0.87,0.6-0.97l24.46-5.75c4.86-1.15,9.9-0.38,14.19,2.16l1.9,1.12
                c2.71,1.6,5.82,2.45,8.97,2.45h13.61c3.46,0,6.81-1.01,9.71-2.91c4.44-2.92,9.95-3.88,15.11-2.63l23.03,5.56
                c0.43,0.11,0.7,0.54,0.59,0.97C355.05,198.27,354.72,198.52,354.36,198.52z"/>
            <path fill="#A2694B" d="M339.18,184.31c-0.06,0-0.13-0.01-0.19-0.02l-16.71-4.03c-3.38-0.82-6.97-0.19-9.87,1.72
                c-2.32,1.53-5.02,2.34-7.8,2.34h-9.87c-2.53,0-5.03-0.68-7.21-1.97l-1.38-0.81c-2.81-1.66-6.1-2.16-9.27-1.41l-17.74,4.17
                c-0.44,0.12-0.87-0.17-0.97-0.6c-0.1-0.43,0.17-0.87,0.6-0.97l17.74-4.17c3.57-0.84,7.29-0.28,10.46,1.59l1.38,0.81
                c1.94,1.14,4.15,1.74,6.39,1.74h9.87c2.47,0,4.86-0.72,6.92-2.07c3.27-2.15,7.33-2.86,11.14-1.94l16.71,4.03
                c0.43,0.11,0.7,0.54,0.59,0.97C339.87,184.06,339.54,184.31,339.18,184.31z"/>
            <path fill="#A2694B" d="M300.7,327.04c-8.84,0-15.78-3.5-15.88-3.56c-0.39-0.2-0.55-0.69-0.35-1.09c0.2-0.39,0.69-0.55,1.09-0.35
                c0.15,0.07,15.02,7.57,28.57,0.01c0.39-0.22,0.88-0.08,1.1,0.31c0.22,0.39,0.08,0.88-0.31,1.1
                C310.11,326.15,305.16,327.04,300.7,327.04z"/>
            <path fill="#1C0404" d="M273.94,278.92h-30.77c-10.07,0-18.26-8.19-18.26-18.26c0-10.07,8.19-18.26,18.26-18.26h30.77
                c10.07,0,18.26,8.19,18.26,18.26C292.2,270.73,284.01,278.92,273.94,278.92z M243.17,244.01c-9.18,0-16.65,7.47-16.65,16.65
                c0,9.18,7.47,16.65,16.65,16.65h30.77c9.18,0,16.65-7.47,16.65-16.65c0-9.18-7.47-16.65-16.65-16.65H243.17z"/>
            <path fill="#1C0404" d="M359.91,278.92h-30.77c-10.07,0-18.26-8.19-18.26-18.26c0-10.07,8.19-18.26,18.26-18.26h30.77
                c10.07,0,18.26,8.19,18.26,18.26C378.17,270.73,369.98,278.92,359.91,278.92z M329.14,244.01c-9.18,0-16.65,7.47-16.65,16.65
                c0,9.18,7.47,16.65,16.65,16.65h30.77c9.18,0,16.65-7.47,16.65-16.65c0-9.18-7.47-16.65-16.65-16.65H329.14z"/>
            <rect x="291.4" y="256.77" fill="#1C0404" width="20.29" height="1.61"/>
            <polygon fill="#1C0404" points="381.69,253.71 375.52,253.71 375.52,252.1 380.06,252.1 379.8,229.64 381.41,229.62 		"/>
            <polygon fill="#1C0404" points="227.56,253.71 220.02,253.71 220.02,231.24 221.64,231.24 221.64,252.1 227.56,252.1 		"/>
            <g>
                
                    <rect x="106.32" y="561.1" transform="matrix(0.7071 0.7071 -0.7071 0.7071 442.0572 83.2982)" fill="#D7DDB6" width="28.31" height="28.31"/>
                
                    <rect x="146.36" y="561.1" transform="matrix(0.7071 0.7071 -0.7071 0.7071 453.7852 54.9843)" fill="#54381E" width="28.31" height="28.31"/>
                
                    <rect x="186.41" y="561.1" transform="matrix(0.7071 0.7071 -0.7071 0.7071 465.5132 26.6703)" fill="#D7DDB6" width="28.31" height="28.31"/>
                
                    <rect x="226.45" y="561.1" transform="matrix(0.7071 0.7071 -0.7071 0.7071 477.2412 -1.6437)" fill="#54381E" width="28.31" height="28.31"/>
                
                    <rect x="266.49" y="561.1" transform="matrix(0.7071 0.7071 -0.7071 0.7071 488.9691 -29.9577)" fill="#D7DDB6" width="28.31" height="28.31"/>
                
                    <rect x="306.53" y="561.1" transform="matrix(0.7071 0.7071 -0.7071 0.7071 500.6973 -58.2716)" fill="#54381E" width="28.31" height="28.31"/>
                
                    <rect x="346.57" y="561.1" transform="matrix(0.7071 0.7071 -0.7071 0.7071 512.4254 -86.5856)" fill="#D7DDB6" width="28.31" height="28.31"/>
                
                    <rect x="386.62" y="561.1" transform="matrix(0.7071 0.7071 -0.7071 0.7071 524.1534 -114.8996)" fill="#54381E" width="28.31" height="28.31"/>
                
                    <rect x="426.66" y="561.1" transform="matrix(0.7071 0.7071 -0.7071 0.7071 535.8814 -143.2135)" fill="#D7DDB6" width="28.31" height="28.31"/>
                
                    <rect x="466.7" y="561.1" transform="matrix(0.7071 0.7071 -0.7071 0.7071 547.6091 -171.5275)" fill="#54381E" width="28.31" height="28.31"/>
            </g>
            <g>
                <polygon fill="#54381E" points="224.57,425.03 199.47,457.06 276.06,525.28 300.67,476.28 			"/>
                <polygon fill="#54381E" points="376.27,425.03 401.37,457.06 326.4,525.28 300.17,476.28 			"/>
            </g>
            <path fill="#D7DDB6" d="M278.27,573.74"/>
            <path fill="#54381E" d="M499.45,535.48h-394.6c-0.89,0-1.61-0.72-1.61-1.61c0-0.89,0.72-1.61,1.61-1.61h394.6
                c0.89,0,1.61,0.72,1.61,1.61C501.06,534.76,500.34,535.48,499.45,535.48z"/>
        </g>
    </g>
    </svg>